HIERARCHY
ROOT Hips
{
	OFFSET -3.958830 18.904000 13.208200
	CHANNELS 6 Xposition Yposition Zposition Zrotation Yrotation Xrotation 
	JOINT LHipJoint
	{
		OFFSET 0.000000 0.000000 0.000000
		CHANNELS 3 Zrotation Yrotation Xrotation
		JOINT LeftUpLeg
		{
			OFFSET 1.800000 -1.400000 0.085000
			CHANNELS 3 Zrotation Yrotation Xrotation
			JOINT LeftLeg
			{
				OFFSET 2.215000 -6.000000 0.000000
				CHANNELS 3 Zrotation Yrotation Xrotation
				JOINT LeftFoot
				{
					OFFSET 2.500000 -6.900000 0.000000
					CHANNELS 3 Zrotation Yrotation Xrotation
					JOINT LeftToeBase
					{
						OFFSET 0.200000 -0.500000 1.950000
						CHANNELS 3 Zrotation Yrotation Xrotation
						End Site
						{
							OFFSET 0.000000 0.000000 0.000000
						}
					}
				}
			}
		}
	}
	JOINT RHipJoint
	{
		OFFSET 0.000000 0.000000 0.000000
		CHANNELS 3 Zrotation Yrotation Xrotation
		JOINT RightUpLeg
		{
			OFFSET -1.800000 -1.400000 0.085000
			CHANNELS 3 Zrotation Yrotation Xrotation
			JOINT RightLeg
			{
				OFFSET -2.215000 -6.000000 0.000000
				CHANNELS 3 Zrotation Yrotation Xrotation
				JOINT RightFoot
				{
					OFFSET -2.500000 -6.900000 0.000000
					CHANNELS 3 Zrotation Yrotation Xrotation
					JOINT RightToeBase
					{
						OFFSET -0.200000 -0.500000 1.950000
						CHANNELS 3 Zrotation Yrotation Xrotation
						End Site
						{
							OFFSET 0.000000 0.000000 0.000000
						}
					}
				}
			}
		}
	}
	JOINT LowerBack
	{
		OFFSET 0.000000 0.000000 0.000000
		CHANNELS 3 Zrotation Yrotation Xrotation
		JOINT Spine
		{
			OFFSET -0.087000 1.940000 -0.288900
			CHANNELS 3 Zrotation Yrotation Xrotation
			JOINT Spine1
			{
				OFFSET 0.000000 1.950000 0.060000
				CHANNELS 3 Zrotation Yrotation Xrotation
				JOINT Neck
				{
					OFFSET 0.000000 0.000000 0.000000
					CHANNELS 3 Zrotation Yrotation Xrotation
					JOINT Neck1
					{
						OFFSET 0.000000 1.600000 0.340000
						CHANNELS 3 Zrotation Yrotation Xrotation
						JOINT Head
						{
							OFFSET 0.000000 1.667000 -0.240000
							CHANNELS 3 Zrotation Yrotation Xrotation
							End Site
							{
								OFFSET 0.000000 0.000000 0.000000
							}
						}
					}
				}
				JOINT LeftShoulder
				{
					OFFSET 0.000000 0.000000 0.000000
					CHANNELS 3 Zrotation Yrotation Xrotation
					JOINT LeftArm
					{
						OFFSET 2.700000 1.550000 -0.730000
						CHANNELS 3 Zrotation Yrotation Xrotation
						JOINT LeftForeArm
						{
							OFFSET 5.450000 0.000000 0.000000
							CHANNELS 3 Zrotation Yrotation Xrotation
							JOINT LeftHand
							{
								OFFSET 3.450000 0.000000 0.000000
								CHANNELS 3 Zrotation Yrotation Xrotation
								JOINT LeftHandIndex1
								{
									OFFSET 0.750000 0.000000 0.000000
									CHANNELS 3 Zrotation Yrotation Xrotation
									End Site
									{
										OFFSET 0.000000 0.000000 0.000000
									}
								}
							}
						}
					}
				}
				JOINT RightShoulder
				{
					OFFSET 0.000000 0.000000 0.000000
					CHANNELS 3 Zrotation Yrotation Xrotation
					JOINT RightArm
					{
						OFFSET -2.700000 1.550000 -0.730000
						CHANNELS 3 Zrotation Yrotation Xrotation
						JOINT RightForeArm
						{
							OFFSET -5.450000 0.000000 0.000000
							CHANNELS 3 Zrotation Yrotation Xrotation
							JOINT RightHand
							{
								OFFSET -3.450000 0.000000 0.000000
								CHANNELS 3 Zrotation Yrotation Xrotation
								JOINT RightHandIndex1
								{
									OFFSET -0.750000 0.000000 0.000000
									CHANNELS 3 Zrotation Yrotation Xrotation
									End Site
									{
										OFFSET 0.000000 0.000000 0.000000
									}
								}
							}
						}
					}
				}
			}
		}
	}
}
MOTION
Frames: 11
Frame Time: 0.016667
14.855080 16.367830 -19.905710 4.967209 -11.969304 -21.181556 -15.809266 14.807972 3.037718 3.988122 2.159086 3.823647 -6.550645 17.229993 51.125500 4.739122 7.157383 4.378313 5.512720 5.129540 5.005130 17.562950 -8.626481 4.046316 -22.564039 7.583032 -28.612655 22.589887 -3.133066 18.715524 -1.435953 -3.641390 4.638779 2.607780 -3.660020 -0.407830 -1.533383 -6.648499 -8.902836 9.227796 -5.525017 49.931526 -9.684113 -0.886905 15.542400 18.048958 -8.384417 -24.382780 -24.177970 -15.464682 42.833956 18.654540 -16.379980 -61.683620 -11.084433 -32.478238 14.973151 -32.850306 -25.853119 -2.409752 13.425941 -5.083813 1.301929 -0.946215 1.741327 0.248220 -0.548430 1.189550 0.065560 -21.552356 55.294854 2.069489 -7.639148 14.121240 -31.997552 -45.712903 24.881530 -16.385784 3.517437 -5.514787 2.298780 -1.982190 -5.418460 -1.184620 
14.813510 16.370940 -19.878480 5.325370 -11.735090 -21.430765 -15.812129 14.818143 3.028068 3.867400 2.126354 4.180832 -6.142428 16.998723 51.300578 4.783427 7.124759 4.384848 5.528340 5.122340 5.052740 17.556787 -8.565497 4.103383 -22.962740 7.765894 -27.838160 24.042567 -3.426243 18.711148 -1.505229 -3.858511 4.564759 2.553240 -3.666790 -0.359580 -1.530890 -6.748908 -8.945714 8.648992 -5.536325 50.147244 -9.974287 -0.961260 15.151231 18.062343 -7.581109 -25.114154 -24.084661 -13.933683 45.077520 18.236400 -15.657740 -61.873800 -11.536617 -32.889936 15.331939 -32.891967 -25.223021 -2.474805 13.571663 -4.672530 1.356568 -0.950507 1.748844 0.252320 -0.550620 1.214320 0.042890 -21.266415 55.174125 2.602924 -7.022787 14.855229 -31.670871 -46.006533 23.576076 -16.166220 3.472855 -5.454069 2.344970 -2.014770 -5.424320 -1.172260 
14.762570 16.382010 -19.750300 4.349255 -12.666634 -21.236607 -15.715426 14.871905 2.988525 5.830191 2.502203 5.331978 -6.683413 17.327939 50.392855 4.885965 7.055596 4.412210 5.518640 5.113340 4.980320 17.615569 -8.536098 4.250406 -21.957102 9.064344 -26.319516 26.822326 -3.839327 18.966708 -1.629410 -4.175127 4.453646 2.524370 -3.726050 -0.363040 -1.725046 -6.860674 -8.963747 10.381343 -8.198212 50.118632 -11.998998 -2.056108 13.472269 19.515305 -8.481314 -27.997521 -31.417129 -9.260650 48.981051 19.085210 -17.227380 -58.929010 -13.096434 -32.356053 15.004954 -33.981640 -25.137551 -1.037184 11.428692 -2.224124 2.059105 -0.879902 1.805167 0.239410 -0.609150 1.231280 0.077110 -21.526510 56.146143 4.909145 -7.438333 14.882900 -30.472437 -43.824785 24.285129 -15.281862 3.641138 -5.608248 2.393890 -2.087030 -5.445410 -1.137800 
14.662190 16.410120 -19.595650 3.189424 -11.402832 -20.329810 -15.728660 15.120811 2.871128 7.237947 2.407104 6.200415 -4.907829 15.740640 48.988021 4.815075 6.592507 4.525708 5.496510 5.068990 4.934810 17.579681 -8.312339 4.390468 -21.644067 9.922806 -24.508841 30.319857 -4.509336 18.805074 -1.783971 -4.604716 4.315548 2.451310 -3.750150 -0.333420 -1.692864 -7.555739 -8.976866 12.207912 -9.715614 49.650040 -12.214176 -3.201156 10.398924 20.217461 -8.235005 -29.790753 -36.034689 -5.561148 52.473247 20.069280 -17.859410 -59.421870 -17.370690 -31.356684 14.109531 -36.187247 -24.961151 -0.863647 12.047600 -1.935835 2.086103 -0.845471 1.853823 0.249330 -0.650840 1.239070 0.077180 -17.975631 55.860244 8.251164 -5.383825 15.805998 -25.503427 -42.135255 29.907929 -15.643461 3.224499 -5.507681 2.437430 -2.141470 -5.430810 -1.112770 
14.551250 16.425200 -19.429630 3.852138 -9.480298 -20.024133 -15.815265 15.247729 2.774088 7.089359 2.694256 8.031621 -3.367661 14.228551 46.924623 4.695671 6.063429 4.648156 5.524940 5.120780 4.899570 17.499571 -7.989940 4.673562 -23.908231 10.456788 -23.419632 35.023023 -5.453132 18.996253 -2.013863 -5.313983 4.088821 2.481140 -3.776350 -0.365280 -1.502483 -8.171994 -9.106237 10.853826 -9.789234 47.654862 -12.343313 -3.449141 10.155559 20.961635 -7.102305 -32.244453 -38.163484 -1.124779 58.141915 20.955470 -18.142700 -59.208510 -19.296302 -31.927962 14.915923 -36.267975 -24.038246 -0.922290 10.862184 -3.958771 2.020727 -0.707999 1.851494 0.276420 -0.699350 1.265980 0.106990 -17.327191 57.019061 8.167463 -6.801486 17.641055 -21.702338 -36.222435 23.295209 -11.217477 2.912010 -5.190721 2.447500 -2.121860 -5.440120 -1.095770 
14.401690 16.463380 -19.270030 5.804410 -10.050910 -19.666417 -15.884853 15.284683 2.771293 5.868870 3.627193 10.066069 -2.735192 13.304172 44.050587 4.600225 5.533197 4.762980 5.557380 5.137830 4.900710 17.447076 -7.846539 4.819489 -25.053957 11.316347 -23.779490 37.132894 -6.427713 21.051624 -2.164261 -5.742888 3.905300 2.492860 -3.844130 -0.374660 -1.317504 -8.387678 -9.215168 7.757770 -7.912745 45.411198 -11.726655 -2.010751 10.841673 21.316285 -6.446231 -35.017689 -40.622397 3.917251 64.249383 24.115350 -17.518760 -60.773510 -20.665079 -33.707314 16.707096 -37.295297 -23.090682 -2.121280 12.493335 -7.051367 1.485104 -0.489326 1.956688 0.338740 -0.783910 1.311090 0.104770 -15.651724 60.182891 8.065869 -4.659655 21.483977 -21.669970 -38.978025 10.996643 -10.036869 3.129136 -5.079514 2.459010 -2.152490 -5.456910 -1.097840 
14.231700 16.499050 -19.123140 5.731430 -9.926086 -19.750723 -16.002413 15.465053 2.730402 8.435041 3.712998 11.767837 -3.656338 13.417078 41.821823 4.472432 5.496018 4.763712 5.588000 5.122410 4.928520 17.341772 -7.639148 4.791546 -24.351980 11.983708 -22.709916 38.994406 -7.341632 22.238588 -2.281145 -6.057856 3.784174 2.531530 -3.856650 -0.395450 -1.024109 -9.026544 -9.275807 6.524810 -7.265667 44.277292 -11.050898 -2.051285 12.163174 22.065263 -6.124320 -35.993824 -43.647856 6.586843 64.739239 24.614870 -17.521690 -61.966180 -20.872264 -33.155500 16.753751 -36.005789 -24.281495 -3.661185 10.974943 -12.787795 0.743137 -0.343925 1.903221 0.418290 -0.825280 1.314110 0.095530 -16.752059 59.898027 9.355381 -4.917053 20.437780 -22.651292 -39.085693 11.735237 -10.167394 3.181546 -5.169228 2.405960 -2.117400 -5.448490 -1.130880 
14.058410 16.572700 -18.973510 6.546276 -9.710782 -19.366608 -16.054150 15.525310 2.774527 8.804706 3.481256 13.195724 -4.090072 12.796237 39.224158 4.338341 5.207552 4.777434 5.664510 5.109900 5.057150 17.313808 -7.622131 4.621534 -23.782594 11.396420 -23.298569 38.414441 -9.146326 25.694848 -2.346264 -6.350205 3.625265 2.531090 -3.949450 -0.416770 -0.932074 -9.210744 -9.254438 5.070297 -5.224617 42.797004 -7.725762 -3.616905 8.867036 20.936000 -5.213781 -36.923344 -45.297778 10.577592 68.504144 23.272580 -17.092250 -59.004420 -23.996374 -32.206324 14.927028 -39.386025 -21.905665 -1.658111 8.443292 -10.783875 1.293983 -0.387524 1.823490 0.486780 -0.896430 1.320110 0.014470 -11.076179 57.458065 13.418700 -1.386705 13.887941 -21.327514 -38.373344 30.021491 -12.965335 2.724872 -5.215781 2.414140 -2.166840 -5.450970 -1.196340 
13.831000 16.670210 -18.798320 6.947200 -10.453233 -18.985555 -16.259923 15.690467 2.925135 11.774748 3.777140 14.945578 -9.225997 14.149008 33.949977 4.272247 5.231636 4.743378 5.783920 5.202110 5.119530 17.141787 -7.450685 4.304160 -21.418541 11.872947 -22.153558 36.655593 -9.311211 27.387419 -2.370071 -6.215785 3.671888 2.612440 -3.991490 -0.466760 -0.421632 -9.950434 -9.385997 2.528914 -2.689005 40.176030 -5.271713 -3.531327 10.476485 22.422058 -3.961087 -38.983464 -48.722039 15.354907 70.452999 23.214160 -17.016650 -59.810250 -25.599253 -32.515910 15.324109 -39.098020 -21.401643 -1.741477 7.527478 -12.239121 1.159014 -0.267878 1.785610 0.568860 -0.974490 1.347550 0.032800 -11.762506 58.424159 14.307215 -0.680724 11.262282 -21.876841 -37.607527 30.700642 -12.349666 2.722413 -5.308510 2.405700 -2.094940 -5.459320 -1.221840 
13.603450 16.756460 -18.643010 5.379239 18.937917 -14.424296 -16.389952 16.544008 2.396162 11.819881 -3.013857 2.192358 9.177484 3.294110 39.472454 3.688837 3.334711 5.182053 5.893570 5.293270 5.168650 16.712260 -7.238884 5.101493 -29.958824 2.081506 -12.811835 45.051652 -7.752276 10.816514 -2.664263 -6.385375 3.524166 2.627170 -4.103340 -0.370890 0.040887 -11.605143 -9.805174 -2.641319 -6.383231 31.876857 -0.176377 -13.514007 18.559794 24.643534 0.946628 -44.821137 -43.952094 12.164668 75.776837 22.407990 -22.225030 -59.701050 -20.582869 -41.499388 29.695309 -33.053811 -29.178263 -6.084064 10.870920 -20.215931 -0.435307 0.241750 2.043391 0.522990 -1.043430 1.449620 0.109350 -27.261216 55.133487 10.651162 11.307292 8.454629 -22.466733 -43.028122 10.988537 -10.120409 3.658427 -5.796698 2.539940 -2.175870 -5.527460 -1.152730 
13.281630 16.784310 -18.590510 8.505439 27.711842 -24.620735 -15.831631 15.065395 1.881191 11.867159 -0.963181 13.120908 13.203743 1.506037 36.283912 4.930650 2.922016 5.179211 6.126150 6.087510 4.607340 17.515196 -7.881734 5.081106 -35.793091 1.217064 2.956409 47.125256 -7.195952 6.534160 -3.277593 -7.642738 3.371718 2.736630 -3.877410 0.160280 -1.944944 -7.210288 -9.463091 3.758492 3.129833 39.163666 11.685393 1.925144 40.042732 4.734191 -18.834512 -50.521656 -40.655386 6.469744 84.258660 57.256590 -19.999120 -63.900240 33.196375 -40.636454 59.857439 69.071898 -40.062479 -176.910515 -23.651664 -22.496938 -0.175308 0.689810 5.032330 -0.010570 -0.930110 1.912530 0.872870 -28.600564 55.215165 -0.300682 25.679465 -36.920430 -9.625786 -41.762894 -9.308149 -6.678855 7.282714 -5.824209 3.238560 -2.447520 -5.837280 -0.358370 
